<svg xmlns="http://www.w3.org/2000/svg" version="1.1" xmlns:xlink="http://www.w3.org/1999/xlink" xmlns:svgjs="http://svgjs.com/svgjs" width="1440" height="560" preserveAspectRatio="none" viewBox="0 0 1440 560">
    <g mask="url(&quot;#SvgjsMask1000&quot;)" fill="none">
        <rect width="1440" height="560" x="0" y="0" fill="rgba(230, 244, 241, 1)"></rect>
        <path d="M36 560L596 0L898 0L338 560z" fill="url(#SvgjsLinearGradient1001)"></path>
        <path d="M570.8 560L1130.8 0L1440 0L880 560z" fill="url(#SvgjsLinearGradient1001)"></path>
        <path d="M1404 560L844 0L617.5 0L1177.5 560z" fill="url(#SvgjsLinearGradient1002)"></path>
        <path d="M888.2 560L328.20000000000005 0L85.70000000000005 0L645.7 560z" fill="url(#SvgjsLinearGradient1002)"></path>
        <path d="M1105.7630104095217 560L1440 225.76301040952166L1440 560z" fill="url(#SvgjsLinearGradient1001)"></path>
        <path d="M0 560L334.2369895904783 560L 0 225.76301040952166z" fill="url(#SvgjsLinearGradient1002)"></path>
    </g>
    <defs>
        <mask id="SvgjsMask1000">
            <rect width="1440" height="560" fill="#ffffff"></rect>
        </mask>
        <linearGradient x1="0%" y1="100%" x2="100%" y2="0%" id="SvgjsLinearGradient1001">
            <stop stop-color="rgba(155, 223, 207, 0.2)" offset="0"></stop>
            <stop stop-opacity="0" stop-color="rgba(155, 223, 207, 0.2)" offset="0.66"></stop>
        </linearGradient>
        <linearGradient x1="100%" y1="100%" x2="0%" y2="0%" id="SvgjsLinearGradient1002">
            <stop stop-color="rgba(155, 223, 207, 0.2)" offset="0"></stop>
            <stop stop-opacity="0" stop-color="rgba(155, 223, 207, 0.2)" offset="0.66"></stop>
        </linearGradient>
    </defs>
</svg>